# xmcd CD database file
#
# Track frame offsets:
#	150
#	16022
#	38288
#	63416
#	85100
#	107116
#	128699
#	147165
#	165735
#	193882
#	219857
#	252766
#	277136
#	295999
#	316276
#
# Disc length: 4502 seconds
#
# Revision: 2
# Processed by: cddbd v1.5.1PL0 Copyright (c) Steve Scherf et al.
# Submitted via: CDex 1.51
#
DISCID=cf11940f
DTITLE=Various Artist - Salsa Cubana
DYEAR=2001
DGENRE=Salsa
TTITLE0=Cubismo - Chan Chan
TTITLE1=Manolito y su Trabuco - Llego la Musica Cubana
TTITLE2=Manolito y su Trabuco - Marcanda La Distancia
TTITLE3=Sell LA - Analiza y Piensa
TTITLE4=Giraldo Piloto and Kilman - Aun Au
TTITLE5=Chispay y los Complices - Camplices de Amor
TTITLE6=Laito Jrs la Sonora Sonora - Carnival
TTITLE7=Eddy McLean - Azucar
TTITLE8=Fito Gress y la Banda del Puerto - Havana Cola
TTITLE9=David Calizado and la Charanga Havanera - El Temba
TTITLE10=Ng la Banda - Danata Palabra
TTITLE11=Tuco yu Zaperoco - El Cuarto de Tula
TTITLE12=Ommar Hernandex - Un Disparo en la Mirada
TTITLE13=Caiman - La Taza
TTITLE14=Bamboleo - Ya Na Me Barazco A Nadie
EXTD=YEAR: 2001
EXTT0=
EXTT1=
EXTT2=
EXTT3=
EXTT4=
EXTT5=
EXTT6=
EXTT7=
EXTT8=
EXTT9=
EXTT10=
EXTT11=
EXTT12=
EXTT13=
EXTT14=
PLAYORDER=
